<?xml version="1.0" encoding="utf-8"?>
<!-- Generator: Adobe Illustrator 25.2.1, SVG Export Plug-In . SVG Version: 6.00 Build 0)  -->
<svg version="1.1" id="Layer_1" xmlns="http://www.w3.org/2000/svg" xmlns:xlink="http://www.w3.org/1999/xlink" x="0px" y="0px"
	 viewBox="0 0 841.9 595.3" style="enable-background:new 0 0 841.9 595.3;" xml:space="preserve">
<style type="text/css">
	.st0{opacity:0.1;fill:#8DC13F;enable-background:new    ;}
	.st1{opacity:0.1;fill:#63A944;enable-background:new    ;}
	.st2{opacity:0.1;fill:#DA7027;enable-background:new    ;}
	.st3{opacity:0.1;}
	.st4{fill:#DA7027;}
	.st5{opacity:0.5;fill:#8DC13F;enable-background:new    ;}
	.st6{opacity:0.5;fill:#63A944;enable-background:new    ;}
	.st7{opacity:0.5;fill:#DA7027;enable-background:new    ;}
	.st8{opacity:0.5;}
	.st9{fill:#8DC13F;}
	.st10{fill:#63A944;}
	.st11{opacity:0.4;fill:#8DC13F;enable-background:new    ;}
	.st12{opacity:0.4;fill:#63A944;enable-background:new    ;}
	.st13{opacity:0.4;fill:#DA7027;enable-background:new    ;}
	.st14{opacity:0.4;}
	.st15{opacity:0.8;fill:#8DC13F;enable-background:new    ;}
	.st16{opacity:0.8;fill:#63A944;enable-background:new    ;}
	.st17{opacity:0.8;fill:#DA7027;enable-background:new    ;}
	.st18{opacity:0.8;}
	.st19{opacity:0.3;fill:#8DC13F;enable-background:new    ;}
	.st20{opacity:0.3;fill:#63A944;enable-background:new    ;}
	.st21{opacity:0.3;fill:#DA7027;enable-background:new    ;}
	.st22{opacity:0.3;}
	.st23{opacity:0.6;fill:#8DC13F;enable-background:new    ;}
	.st24{opacity:0.6;fill:#63A944;enable-background:new    ;}
	.st25{opacity:0.6;fill:#DA7027;enable-background:new    ;}
	.st26{opacity:0.6;}
	.st27{opacity:0.2;fill:#8DC13F;enable-background:new    ;}
	.st28{opacity:0.2;fill:#63A944;enable-background:new    ;}
	.st29{opacity:0.2;fill:#DA7027;enable-background:new    ;}
	.st30{opacity:0.2;}
	.st31{fill:none;stroke:#DA7027;stroke-width:7;stroke-miterlimit:10;}
	.st32{fill:#FFFFFF;}
</style>
<g>
	<g>
		<path class="st0" d="M549.7,294.3c0,0-10.3,13.4-33.2-4.9c-12.5-10-30.9-12.5-43.5,10.8c9.3-4.1,31-11.2,45.9,4.3
			c0,0-16.1-13.1-45.4,2c3.8,9.3,14.8,30,35.9,25.8C537.3,326.5,549.7,294.3,549.7,294.3z"/>
		<path class="st1" d="M473.7,306.3c18,14,42.9,17.3,64.4,7.2c7.9-9.6,11.6-19.3,11.6-19.3s-10.3,13.4-33.2-4.9
			c-12.5-10-30.9-12.5-43.5,10.8c9.3-4.1,31-11.2,45.9,4.3C518.9,304.3,502.9,291.3,473.7,306.3z"/>
		<circle class="st2" cx="510.2" cy="275.8" r="2"/>
		<g class="st3">
			<circle class="st4" cx="515.1" cy="280.2" r="1.4"/>
			<circle class="st4" cx="526" cy="272.3" r="3.5"/>
			<circle class="st4" cx="524.6" cy="285.8" r="1.1"/>
			<path class="st4" d="M536.5,293.6c-1.6,0.9-3.5,0.4-4.5-1.2c-0.9-1.6-0.4-3.5,1.2-4.5c1.5-0.9,3.5-0.4,4.5,1.2
				S538.1,292.7,536.5,293.6z"/>
		</g>
		<path class="st5" d="M320.7,309.1c0,0,10.3-13.4,33.2,4.9c12.5,10,30.9,12.5,43.5-10.8c-9.3,4.1-31,11.2-45.9-4.3
			c0,0,16.1,13.1,45.4-2c-3.8-9.3-14.8-30-35.9-25.8C333.1,276.9,320.7,309.1,320.7,309.1z"/>
		<path class="st6" d="M396.7,297.1c-18-14-42.9-17.3-64.4-7.2c-7.9,9.6-11.6,19.3-11.6,19.3s10.3-13.4,33.2,4.9
			c12.5,10,30.9,12.5,43.5-10.8c-9.3,4.1-31,11.2-45.9-4.3C351.5,299.1,367.5,312.1,396.7,297.1z"/>
		<circle class="st7" cx="360.1" cy="327.6" r="2"/>
		<g class="st8">
			<circle class="st4" cx="355.3" cy="323.2" r="1.4"/>
			<circle class="st4" cx="344.3" cy="331.1" r="3.5"/>
			<circle class="st4" cx="345.7" cy="317.6" r="1.1"/>
			<circle class="st4" cx="335.5" cy="312.6" r="3.3"/>
		</g>
		<path class="st9" d="M521.4,377.4c0,0-16.8,2.2-20-27c-1.7-15.9-13-30.7-38.4-23.2c9.5,3.7,29.8,14,29.5,35.5
			c0,0-2.1-20.6-33.5-30.6c-3.9,9.3-10.7,31.7,7.2,43.6C489.8,391.4,521.4,377.4,521.4,377.4z"/>
		<path class="st10" d="M459.1,332.2c2.8,22.7,18.1,42.6,40.4,50.7c12.4-1.2,21.8-5.4,21.8-5.4s-16.8,2.2-20-27
			c-1.7-15.9-13-30.7-38.4-23.2c9.5,3.7,29.8,14,29.5,35.5C492.5,362.8,490.4,342.2,459.1,332.2z"/>
		<circle class="st4" cx="506.5" cy="336.5" r="2"/>
		<g>
			<circle class="st4" cx="506.9" cy="343" r="1.4"/>
			<circle class="st4" cx="520.2" cy="345.2" r="3.5"/>
			<path class="st4" d="M509.3,354.8c-0.6-0.2-1-0.8-0.8-1.4s0.8-1,1.4-0.8s1,0.8,0.8,1.4C510.6,354.6,509.9,355,509.3,354.8z"/>
			<circle class="st4" cx="513.4" cy="364.5" r="3.3"/>
		</g>
		<path class="st11" d="M349,226c0,0,16.8-2.2,20,27c1.7,15.9,13,30.7,38.4,23.2c-9.5-3.7-29.8-14-29.5-35.5c0,0,2.1,20.6,33.5,30.6
			c3.9-9.3,10.7-31.7-7.2-43.6C380.5,212,349,226,349,226z"/>
		<path class="st12" d="M411.2,271.3c-2.8-22.7-18.1-42.6-40.4-50.7c-12.4,1.2-21.8,5.4-21.8,5.4s16.8-2.2,20,27
			c1.7,15.9,13,30.7,38.4,23.2c-9.5-3.7-29.8-14-29.5-35.5C377.9,240.7,380,261.2,411.2,271.3z"/>
		<circle class="st13" cx="363.8" cy="266.9" r="2"/>
		<g class="st14">
			<circle class="st4" cx="363.5" cy="260.4" r="1.4"/>
			<circle class="st4" cx="350.1" cy="258.2" r="3.5"/>
			<circle class="st4" cx="360.7" cy="249.7" r="1.1"/>
			<circle class="st4" cx="356.9" cy="238.9" r="3.3"/>
		</g>
		<path class="st15" d="M442.6,416.2c0,0-13.4-10.3,4.9-33.2c10-12.5,12.5-30.9-10.8-43.5c4.1,9.3,11.2,31-4.3,45.9
			c0,0,13.1-16.1-2-45.4c-9.3,3.8-30,14.8-25.8,35.9C410.3,403.8,442.6,416.2,442.6,416.2z"/>
		<path class="st16" d="M430.6,340.2c-14,18-17.3,42.9-7.2,64.4c9.6,7.9,19.3,11.6,19.3,11.6s-13.4-10.3,4.9-33.2
			c10-12.5,12.5-30.9-10.8-43.5c4.1,9.3,11.2,31-4.3,45.9C432.5,385.4,445.6,369.3,430.6,340.2z"/>
		<circle class="st17" cx="461" cy="376.8" r="2"/>
		<g class="st18">
			<circle class="st4" cx="456.7" cy="381.6" r="1.4"/>
			<path class="st4" d="M461.5,394.4c-1-1.7-0.4-3.9,1.3-4.8c1.7-1,3.9-0.4,4.8,1.3c1,1.7,0.4,3.9-1.3,4.8
				C464.7,396.6,462.5,396.1,461.5,394.4z"/>
			<circle class="st4" cx="451.1" cy="391.1" r="1.1"/>
			<path class="st4" d="M443.3,403.1c-0.9-1.6-0.4-3.5,1.2-4.5c1.5-0.9,3.5-0.4,4.5,1.2c0.9,1.6,0.4,3.5-1.2,4.5
				C446.2,405.1,444.2,404.6,443.3,403.1z"/>
		</g>
		<path class="st19" d="M427.7,187.2c0,0,13.4,10.3-4.9,33.2c-10,12.5-12.5,30.9,10.8,43.5c-4.1-9.3-11.2-31,4.3-45.9
			c0,0-13.1,16.1,2,45.3c9.3-3.8,30-14.8,25.8-35.9C460,199.7,427.7,187.2,427.7,187.2z"/>
		<path class="st20" d="M439.8,263.3c14-18,17.3-42.9,7.2-64.4c-9.6-7.9-19.3-11.6-19.3-11.6s13.4,10.3-4.9,33.2
			c-10,12.5-12.5,30.9,10.8,43.5c-4.1-9.3-11.2-31,4.3-45.9C437.8,218,424.8,234.1,439.8,263.3z"/>
		<circle class="st21" cx="409.3" cy="226.6" r="2"/>
		<g class="st22">
			<circle class="st4" cx="413.7" cy="221.8" r="1.4"/>
			<path class="st4" d="M408.8,209.1c1,1.7,0.4,3.9-1.3,4.8c-1.7,1-3.9,0.4-4.8-1.3c-1-1.7-0.4-3.9,1.3-4.8
				C405.7,206.8,407.8,207.4,408.8,209.1z"/>
			<circle class="st4" cx="419.3" cy="212.3" r="1.1"/>
			<circle class="st4" cx="424.2" cy="202" r="3.3"/>
		</g>
		<path class="st23" d="M359.5,387.9c0,0-2.2-16.8,27-20c15.9-1.7,30.7-13,23.2-38.4c-3.7,9.5-14,29.8-35.5,29.5
			c0,0,20.6-2.1,30.7-33.5c-9.3-3.9-31.7-10.7-43.6,7.2C345.5,356.3,359.5,387.9,359.5,387.9z"/>
		<path class="st24" d="M404.7,325.6c-22.7,2.8-42.6,18.1-50.7,40.4c1.2,12.4,5.4,21.8,5.4,21.8s-2.2-16.8,27-20
			c15.9-1.7,30.7-13,23.2-38.4c-3.7,9.5-14,29.8-35.5,29.5C374.1,359,394.7,356.9,404.7,325.6z"/>
		<circle class="st25" cx="400.4" cy="373.1" r="2"/>
		<g class="st26">
			<path class="st4" d="M392.5,373.1c0.2-0.8,1-1.2,1.7-1c0.8,0.2,1.2,1,1,1.7c-0.2,0.8-1,1.2-1.7,1
				C392.7,374.6,392.3,373.8,392.5,373.1z"/>
			<circle class="st4" cx="391.7" cy="386.7" r="3.5"/>
			<path class="st4" d="M382.1,375.9c0.2-0.6,0.8-1,1.4-0.8s1,0.8,0.8,1.4s-0.8,1-1.4,0.8C382.3,377.1,381.9,376.5,382.1,375.9z"/>
			<circle class="st4" cx="372.4" cy="379.9" r="3.3"/>
		</g>
		<path class="st27" d="M510.9,215.5c0,0,2.2,16.8-27,20c-15.9,1.7-30.7,13-23.2,38.4c3.7-9.5,14-29.8,35.5-29.5
			c0,0-20.6,2.1-30.6,33.5c9.3,3.9,31.7,10.7,43.6-7.2C524.9,247.1,510.9,215.5,510.9,215.5z"/>
		<path class="st28" d="M465.6,277.8c22.7-2.8,42.6-18.1,50.7-40.4c-1.2-12.4-5.4-21.8-5.4-21.8s2.2,16.8-27,20
			c-15.9,1.7-30.7,13-23.2,38.4c3.7-9.5,14-29.8,35.5-29.5C496.2,244.4,475.6,246.5,465.6,277.8z"/>
		<circle class="st29" cx="469.9" cy="230.3" r="2"/>
		<g class="st30">
			<circle class="st4" cx="476.5" cy="230" r="1.4"/>
			<circle class="st4" cx="478.6" cy="216.7" r="3.5"/>
			<circle class="st4" cx="487.1" cy="227.2" r="1.1"/>
			<circle class="st4" cx="497.9" cy="223.5" r="3.3"/>
		</g>
	</g>
	<g>
		<path class="st31" d="M423.7,290.1l-5.5-4.5h4.7c0,0,2.5,0.4,4-1.3c1.5-1.7,5.8-3.1,9.2-2.2c3.4,0.9,5.9,3.4,6.6,5.5
			c0.7,2.2,0.4,5.3-0.5,7.2s-4.8,5-4.8,5l5.7,7.2l8.5-4l-4.4,9.3l5,6l-9.6-1c0,0-6.6,5.2-12.9,4.1s-9.4-4.1-10.6-9.8
			c-0.6-6.4,4-11.1,7.7-12.7c-0.8-5.3-8.3-3.8-8.3-3.8L423.7,290.1z"/>
		<path class="st4" d="M431,292.2c1.1,1.7,3.3,1,3.3,1s3.1-1.1,1.4-4.5c-2.2-3-4.7-0.1-4.7-0.1l2.4,1.7L431,292.2z"/>
		<path class="st4" d="M431.5,302.5l8.1,9.8c0,0-3.4,3.1-6.2,3.3c-2.9,0.3-5-0.1-6.6-2.6c-1.5-2.8-1.3-4.7,0-6.4
			C428.1,305,431.5,302.5,431.5,302.5z"/>
		<path class="st32" d="M426.8,311.2c-0.3-0.2-0.5-0.4-0.7-0.8c-0.1-0.2-0.2-0.4-0.3-0.6c-0.2-0.8-0.1-1.5,0.5-2.2
			c0,0.1,0,0.2,0,0.4c0,0.1-0.1,0.2-0.1,0.3c-0.1,0.2-0.1,0.4-0.1,0.6c0,0.1,0,0.3,0,0.5s0.1,0.5,0.3,0.7c0.1,0.2,0.3,0.4,0.5,0.5
			s0.4,0.2,0.5,0.2c0.3,0,0.6-0.1,0.9-0.3c0.4-0.2,0.7-0.6,0.8-1.2c0.2-0.5,0.2-1.1,0.2-1.8c0.2,0.8,0.1,1.5,0,2.1
			c-0.2,0.6-0.5,1.1-1,1.4c-0.2,0.1-0.4,0.2-0.6,0.2C427.4,311.5,427.1,311.4,426.8,311.2z M428.6,305.6h0.3
			c0.5,0.3,0.8,0.6,1.1,0.9c0.3,0.3,0.4,0.6,0.4,1c0,0.1,0,0.2,0,0.3c0,0.2-0.1,0.3-0.3,0.4c-0.1,0.1-0.3,0.3-0.6,0.4
			c0-0.2,0-0.4,0-0.5c0-0.4-0.1-0.8-0.3-1.1v0.2c-0.1,0.3-0.1,0.6-0.2,0.8c-0.1,0.2-0.2,0.4-0.3,0.6c-0.3-0.1-0.5-0.3-0.7-0.4
			s-0.3-0.3-0.3-0.5s0-0.3,0.1-0.5c0.1-0.1,0.2-0.3,0.4-0.5c0.2-0.2,0.3-0.3,0.4-0.5c0.1-0.1,0.1-0.2,0.1-0.4
			C428.7,305.8,428.7,305.7,428.6,305.6z"/>
		<path class="st32" d="M429.1,312.3c0.2-0.1,0.4-0.3,0.6-0.3c0.5-0.2,1.1-0.1,1.7,0.1s1.2,0.7,1.7,1.3c-0.5-0.4-1-0.7-1.5-0.9
			c-0.5-0.2-1-0.2-1.4-0.1c-0.3,0.1-0.5,0.3-0.7,0.5c-0.1,0.1-0.2,0.3-0.2,0.5s0,0.5,0.1,0.7c0.1,0.3,0.2,0.5,0.4,0.7
			c0.1,0.1,0.3,0.2,0.4,0.3c0.1,0.1,0.3,0.2,0.5,0.2c0.1,0,0.2,0.1,0.3,0.1c0.1,0.1,0.2,0.1,0.3,0.2c-0.9,0-1.5-0.3-2-1
			c-0.1-0.2-0.2-0.4-0.3-0.6c-0.1-0.4-0.2-0.7-0.1-1.1C428.8,312.7,429,312.5,429.1,312.3z M434.2,314.8c-0.1-0.1-0.2-0.1-0.4-0.1
			c-0.1,0-0.3,0-0.6,0c-0.3,0-0.5,0-0.7,0s-0.3-0.1-0.4-0.2s-0.2-0.3-0.2-0.5s0-0.5,0.1-0.8c0.2,0,0.4,0.1,0.6,0.2s0.5,0.2,0.7,0.3
			l0.2,0.1c-0.1-0.3-0.3-0.7-0.7-0.9c-0.1-0.1-0.3-0.2-0.5-0.3c0.3-0.1,0.5-0.2,0.7-0.2s0.4,0,0.5,0.1c0.1,0,0.1,0.1,0.2,0.2
			c0.3,0.2,0.4,0.5,0.5,0.9s0.1,0.9,0,1.4l-0.2,0.2C434.3,315,434.3,314.9,434.2,314.8z"/>
	</g>
</g>
</svg>
