<?xml version="1.0" encoding="utf-8"?>
<!-- Generator: Adobe Illustrator 25.2.1, SVG Export Plug-In . SVG Version: 6.00 Build 0)  -->
<svg version="1.1" id="Capa_1" xmlns="http://www.w3.org/2000/svg" xmlns:xlink="http://www.w3.org/1999/xlink" x="0px" y="0px"
	 viewBox="0 0 327.6 327.6" style="enable-background:new 0 0 327.6 327.6;" xml:space="preserve">
<style type="text/css">
	.st0{fill:#64A93D;stroke:#64A93D;stroke-width:4;stroke-miterlimit:10;}
</style>
<g>
	<path class="st0" d="M2.1,67.6l147,120.6v92.2c0,2.4,1.4,4.5,3.6,5.4c0.7,0.3,1.5,0.4,2.2,0.4c1.5,0,3-0.6,4.1-1.7l49.8-49.8
		c0.7-0.7,1.1-1.5,1.4-2.4c0.1,0,0.1-0.1,0.2-0.1l63.4-55.6c0.1-0.1,0.1-0.1,0.1-0.2c0.5-0.4,0.8-0.9,1.1-1.5
		c0.1-0.2,0.2-0.3,0.2-0.5c0.3-0.6,0.4-1.3,0.4-2c0-0.1,0-0.1,0-0.1l0,0l0,0V105h45.9c2.4,0,4.5-1.4,5.4-3.6s0.4-4.7-1.3-6.4
		l-51.7-51.7c-0.1-0.1-0.2-0.1-0.2-0.2c-0.2-0.2-0.4-0.3-0.7-0.5c-0.3-0.2-0.5-0.3-0.8-0.5c-0.1,0-0.1-0.1-0.2-0.1
		c-0.2-0.1-0.3-0.1-0.5-0.1c-0.3-0.1-0.6-0.2-0.9-0.2s-0.6,0-0.8,0c-0.3,0-0.6,0-0.8,0c-0.3,0-0.6,0.1-0.9,0.2
		c-0.2,0.1-0.3,0.1-0.5,0.1c-0.1,0-0.1,0.1-0.2,0.1c-0.3,0.1-0.5,0.3-0.8,0.5c-0.2,0.2-0.5,0.3-0.7,0.5c-0.1,0.1-0.2,0.1-0.2,0.2
		l-61,61l-49-45.3c-1.1-1-2.5-1.6-4-1.6H5.9c-2.5,0-4.7,1.6-5.5,3.9C-0.5,63.4,0.2,66,2.1,67.6z M215.9,109.7l48.3-48.3V99v59
		L215.9,109.7z M275.9,93.1V61.4l31.7,31.7C307.6,93.1,275.9,93.1,275.9,93.1z M160.9,199.5l35.4,31.3l-35.4,35.4V199.5z M22.2,68.9
		h127.5L261.3,172l-54.8,48.1L22.2,68.9z"/>
</g>
</svg>
