<?xml version="1.0" encoding="utf-8"?>
<!-- Generator: Adobe Illustrator 25.2.1, SVG Export Plug-In . SVG Version: 6.00 Build 0)  -->
<svg version="1.1" id="Layer_1" xmlns="http://www.w3.org/2000/svg" xmlns:xlink="http://www.w3.org/1999/xlink" x="0px" y="0px"
	 viewBox="0 0 512 512" style="enable-background:new 0 0 512 512;" xml:space="preserve">
<style type="text/css">
	.st0{fill:#64A93D;stroke:#64A93D;stroke-width:2;stroke-miterlimit:10;}
</style>
<g>
	<g>
		<path class="st0" d="M135.8,292.6v146.3h240.3V292.6H135.8z M344.8,407.5H167.2v-83.6h177.6L344.8,407.5L344.8,407.5z"/>
	</g>
</g>
<g>
	<g>
		<path class="st0" d="M0,10.4v125.4h31.3v365.7h449.3V135.8H512V10.4H0z M449.3,470.2H62.7V135.8h386.6V470.2z M480.7,104.5H31.3
			V41.8h449.3V104.5z"/>
	</g>
</g>
<g>
	<g>
		<path class="st0" d="M329.1,167.2H182.9c-25.9,0-47,21.1-47,47s21.1,47,47,47h146.3c25.9,0,47-21.1,47-47S355.1,167.2,329.1,167.2
			z M329.1,229.9H182.9c-8.6,0-15.7-7-15.7-15.7s7-15.7,15.7-15.7h146.3c8.6,0,15.7,7,15.7,15.7S337.8,229.9,329.1,229.9z"/>
	</g>
</g>
</svg>
