<?xml version="1.0" encoding="utf-8"?>
<!-- Generator: Adobe Illustrator 25.2.1, SVG Export Plug-In . SVG Version: 6.00 Build 0)  -->
<svg version="1.1" id="Layer_1" xmlns="http://www.w3.org/2000/svg" xmlns:xlink="http://www.w3.org/1999/xlink" x="0px" y="0px"
	 viewBox="0 0 1024 1024" style="enable-background:new 0 0 1024 1024;" xml:space="preserve">
<style type="text/css">
	.st0{fill:#FFFFFF;}
</style>
<path class="st0" d="M708,288c8,0,14.7,2.7,20,8c5.3,5.3,8,12,8,20c0,7.9-2.7,14.5-8.1,19.9L551.6,512l176.3,176.1
	c5.4,5.4,8.1,12,8.1,19.9c0,8-2.7,14.7-8,20c-5.3,5.3-12,8-20,8c-7.9,0-14.5-2.7-19.9-8.1L512,551.6L335.9,727.9
	c-5.4,5.4-12,8.1-19.9,8.1c-8,0-14.7-2.7-20-8c-5.3-5.3-8-12-8-20c0-7.9,2.7-14.5,8.1-19.9L472.4,512L296.1,335.9
	c-5.4-5.4-8.1-12-8.1-19.9c0-8,2.7-14.7,8-20s12-8,20-8c7.9,0,14.5,2.7,19.9,8.1L512,472.4l176.1-176.3
	C693.5,290.7,700.1,288,708,288L708,288z"/>
</svg>
