<?xml version="1.0" encoding="utf-8"?>
<!-- Generator: Adobe Illustrator 25.2.1, SVG Export Plug-In . SVG Version: 6.00 Build 0)  -->
<svg version="1.1" id="Capa_1" xmlns="http://www.w3.org/2000/svg" xmlns:xlink="http://www.w3.org/1999/xlink" x="0px" y="0px"
	 viewBox="0 0 217.4 217.4" style="enable-background:new 0 0 217.4 217.4;" xml:space="preserve">
<style type="text/css">
	.st0{fill:none;stroke:#FFFFFF;stroke-width:13;stroke-miterlimit:10;}
	:hover{
		stroke:#DA7027
	}
</style>
<path class="st0" d="M58.6,33.5c-9.3,0-18.1,3.1-26.2,9.3C20.5,51.9,14.8,62.6,15,75.6c0.3,21.2,16.4,48.8,46.7,79.7
	c19,19.5,38.5,34.9,47,41.3c8.5-6.4,28-21.8,47-41.3c30.3-30.9,46.4-58.5,46.7-79.7c0.2-13-5.5-23.8-17.4-32.8
	c-8.1-6.2-16.9-9.3-26.2-9.3c-12.6,0-26.7,5.8-41,16.7l-9.1,7l-9.1-7C85.3,39.3,71.1,33.5,58.6,33.5z"/>
</svg>
