<?xml version="1.0" encoding="utf-8"?>
<!-- Generator: Adobe Illustrator 25.2.1, SVG Export Plug-In . SVG Version: 6.00 Build 0)  -->
<svg version="1.1" id="Capa_1" xmlns="http://www.w3.org/2000/svg" xmlns:xlink="http://www.w3.org/1999/xlink" x="0px" y="0px"
	 viewBox="0 0 490.1 490.1" style="enable-background:new 0 0 490.1 490.1;" xml:space="preserve">
<style type="text/css">
	.st0{fill:none;stroke:#FFFDFD;stroke-width:28;stroke-miterlimit:10;}
	.st1{fill:none;stroke:#FFFFFF;stroke-width:28;stroke-miterlimit:10;}
</style>
<g>
	<path class="st0" d="M245,61.6c50,0,90.7,40.7,90.7,89.7s-40.7,89.6-90.7,89.6s-90.7-40.7-90.7-89.7S195,61.6,245,61.6z"/>
	<g>
		<g>
			<path class="st1" d="M165.2,251.3c-83.8,27.8-137.9,94.9-137.9,171c0,3.4,2.7,6.1,6.1,6.1h423.4c3.4,0,6.1-2.7,6.1-6.1
				c-0.1-76.1-54.2-143.2-137.9-171c-2.8-0.6-5.2-0.1-6.5,1.5l-0.3,0.3L245,336.7l-73.5-83.9C170.3,251.4,167.2,250.9,165.2,251.3z"
				/>
		</g>
	</g>
</g>
</svg>
